<?xml version="1.0" encoding="UTF-8"?>
<svg xmlns="http://www.w3.org/2000/svg" xmlns:xlink="http://www.w3.org/1999/xlink" id="Layer_1" x="0px" y="0px" viewBox="0 0 512 512" style="enable-background:new 0 0 512 512;" xml:space="preserve">
<g>
	<path d="M381.54,205.16l-65.06-25.2c11.76-33.4-5.79-70.01-39.2-81.77s-70.01,5.79-81.77,39.2c-4.85,13.78-4.85,28.79,0,42.57   l-65.06,25.2c-2.69,1.05-4.46,3.64-4.46,6.52v150.91c0,2.89,1.77,5.48,4.47,6.53l123,47.68c0.81,0.31,1.67,0.47,2.53,0.47   c0.86-0.02,1.7-0.19,2.5-0.52l0.04,0.05l123.01-47.68c2.69-1.05,4.46-3.64,4.46-6.53V211.68C386,208.79,384.23,206.2,381.54,205.16   L381.54,205.16z M359.64,211.68l-22.71,8.8L299.3,206c4.29-3.94,8.02-8.45,11.1-13.4L359.64,211.68z M285.54,215.7l32,12.31   l-18.07,7l-33.14-12.95C273.03,220.98,279.51,218.83,285.54,215.7z M307.32,246.98l23.51-9.11v29.16l-3.93-2.56   c-2.84-1.85-6.59-1.4-8.92,1.06l-10.66,11.31V246.98z M256,108.73c27.68,0,50.12,22.44,50.12,50.12s-22.44,50.12-50.12,50.12   s-50.12-22.44-50.12-50.12l0,0C205.91,131.18,228.33,108.76,256,108.73z M205.6,198.33l-9.37-3.66l5.36-2.08   c1.23,1.99,2.57,3.91,4,5.75V198.33z M176.92,202.15l103.22,40.35L256,251.86l-103.64-40.18L176.92,202.15z M140,357.8V221.9   l109,42.26v135.89L140,357.8z M263,400.05V264.16l30.32-11.76v42.08c0,2.87,1.75,5.45,4.42,6.5c0.82,0.33,1.7,0.5,2.58,0.5   c1.93,0,3.77-0.8,5.1-2.2l18.74-19.89l9.85,6.4c3.25,2.1,7.58,1.17,9.68-2.08c0.73-1.13,1.12-2.44,1.12-3.79v-47.49L372,221.9   V357.8L263,400.05z"></path>
	<path d="M243.53,179.45c2.67,2.26,6.6,2.2,9.2-0.14l33.95-30.51c2.96-2.49,3.35-6.9,0.86-9.86c-2.49-2.96-6.9-3.35-9.86-0.86   c-0.12,0.1-0.24,0.21-0.36,0.32l-29.41,26.44l-13.39-11.32c-2.95-2.5-7.37-2.13-9.87,0.83s-2.13,7.37,0.83,9.87L243.53,179.45z"></path>
</g>
</svg>
