<svg xmlns="http://www.w3.org/2000/svg"
																								xmlns:xlink="http://www.w3.org/1999/xlink"
																								id="Layer_1" x="0px"
																								y="0px"
																								viewBox="0 0 512 512"
																								style="enable-background:new 0 0 512 512;"
																								xml:space="preserve">
																								<g>
																									<path
																										d="M481,94h-22.5V57.5c0-12.7-10.3-23-23-23h-16.1c-12.7,0-23,10.3-23,23V94h-52.2V57.5c0-12.7-10.3-23-23-23h-16.1   c-12.7,0-23,10.3-23,23V94h-52.2V57.5c0-12.7-10.3-23-23-23h-16.1c-12.7,0-23,10.3-23,23V94h-52.2V57.5c0-12.7-10.3-23-23-23H76.5   c-12.7,0-23,10.3-23,23V94H31c-17.1,0-31,13.9-31,31v325.5c0,14.9,12.1,27,27,27h458c14.9,0,27-12.1,27-27V125   C512,107.9,498.1,94,481,94z M410.4,57.5c0-5,4-9,9-9h16.1c5,0,9,4,9,9V94h-34.1V57.5z M296.1,57.5c0-5,4-9,9-9h16.1c5,0,9,4,9,9   V94h-34.1L296.1,57.5z M181.8,57.5c0-5,4-9,9-9h16.1c5,0,9,4,9,9V94h-34.1L181.8,57.5z M67.5,57.5c0-5,4-9,9-9h16.1c5,0,9,4,9,9V94   H67.5L67.5,57.5z M14,125c0-9.4,7.6-17,17-17h450c9.4,0,17,7.6,17,17v45.5H14V125z M498,450.5c0,7.2-5.8,13-13,13H27   c-7.2,0-13-5.8-13-13v-266h484V450.5z">
																									</path>
																									<path
																										d="M55,272.3h42.9c8.3,0,15-6.7,15-15v-31.7c0-8.3-6.7-15-15-15H55c-8.3,0-15,6.7-15,15v31.7C40,265.5,46.7,272.2,55,272.3z    M54,225.5c0-0.6,0.4-1,1-1h42.9c0.6,0,1,0.4,1,1v31.7c0,0.6-0.4,1-1,1H55c-0.6,0-1-0.4-1-1V225.5z">
																									</path>
																									<path
																										d="M174.7,272.3h42.9c8.3,0,15-6.7,15-15v-31.7c0-8.3-6.7-15-15-15h-42.9c-8.3,0-15,6.7-15,15v31.7   C159.7,265.5,166.4,272.2,174.7,272.3z M173.7,225.5c0-0.6,0.4-1,1-1h42.9c0.6,0,1,0.4,1,1v31.7c0,0.6-0.4,1-1,1h-42.9   c-0.6,0-1-0.4-1-1V225.5z">
																									</path>
																									<path
																										d="M294.4,272.3h42.9c8.3,0,15-6.7,15-15v-31.7c0-8.3-6.7-15-15-15h-42.9c-8.3,0-15,6.7-15,15v31.7   C279.4,265.5,286.1,272.2,294.4,272.3z M293.4,225.5c0-0.6,0.4-1,1-1h42.9c0.6,0,1,0.4,1,1v31.7c0,0.6-0.4,1-1,1h-42.9   c-0.6,0-1-0.4-1-1V225.5z">
																									</path>
																									<path
																										d="M414.1,272.3H457c8.3,0,15-6.7,15-15v-31.7c0-8.3-6.7-15-15-15h-42.9c-8.3,0-15,6.7-15,15v31.7   C399.1,265.5,405.8,272.2,414.1,272.3z M413.1,225.5c0-0.6,0.4-1,1-1H457c0.6,0,1,0.4,1,1v31.7c0,0.6-0.4,1-1,1h-42.9   c-0.6,0-1-0.4-1-1V225.5z">
																									</path>
																									<path
																										d="M55,354.9h42.9c8.3,0,15-6.7,15-15v-31.7c0-8.3-6.7-15-15-15H55c-8.3,0-15,6.7-15,15v31.7C40,348.2,46.7,354.9,55,354.9z    M54,308.2c0-0.6,0.4-1,1-1h42.9c0.6,0,1,0.4,1,1v31.7c0,0.6-0.4,1-1,1H55c-0.6,0-1-0.4-1-1V308.2z">
																									</path>
																									<path
																										d="M174.7,354.9h42.9c8.3,0,15-6.7,15-15v-31.7c0-8.3-6.7-15-15-15h-42.9c-8.3,0-15,6.7-15,15v31.7   C159.7,348.2,166.4,354.9,174.7,354.9z M173.7,308.2c0-0.6,0.4-1,1-1h42.9c0.6,0,1,0.4,1,1v31.7c0,0.6-0.4,1-1,1h-42.9   c-0.6,0-1-0.4-1-1V308.2z">
																									</path>
																									<path
																										d="M294.4,354.9h42.9c8.3,0,15-6.7,15-15v-31.7c0-8.3-6.7-15-15-15h-42.9c-8.3,0-15,6.7-15,15v31.7   C279.4,348.2,286.1,354.9,294.4,354.9z M293.4,308.2c0-0.6,0.4-1,1-1h42.9c0.6,0,1,0.4,1,1v31.7c0,0.6-0.4,1-1,1h-42.9   c-0.6,0-1-0.4-1-1V308.2z">
																									</path>
																									<path
																										d="M414.1,354.9H457c8.3,0,15-6.7,15-15v-31.7c0-8.3-6.7-15-15-15h-42.9c-8.3,0-15,6.7-15,15v31.7   C399.1,348.2,405.8,354.9,414.1,354.9z M413.1,308.2c0-0.6,0.4-1,1-1H457c0.6,0,1,0.4,1,1v31.7c0,0.6-0.4,1-1,1h-42.9   c-0.6,0-1-0.4-1-1V308.2z">
																									</path>
																									<path
																										d="M55,437.5h42.9c8.3,0,15-6.7,15-15v-31.7c0-8.3-6.7-15-15-15H55c-8.3,0-15,6.7-15,15v31.7C40,430.8,46.7,437.5,55,437.5z    M54,390.8c0-0.6,0.4-1,1-1h42.9c0.6,0,1,0.4,1,1v31.7c0,0.6-0.4,1-1,1H55c-0.6,0-1-0.4-1-1V390.8z">
																									</path>
																									<path
																										d="M174.7,437.5h42.9c8.3,0,15-6.7,15-15v-31.7c0-8.3-6.7-15-15-15h-42.9c-8.3,0-15,6.7-15,15v31.7   C159.7,430.8,166.4,437.5,174.7,437.5z M173.7,390.8c0-0.6,0.4-1,1-1h42.9c0.6,0,1,0.4,1,1v31.7c0,0.6-0.4,1-1,1h-42.9   c-0.6,0-1-0.4-1-1V390.8z">
																									</path>
																									<path
																										d="M347.3,379.6c-3.1-2.3-7.5-1.8-9.8,1.3l-29.2,38.2l-16.4-20.7c-2.4-3-6.8-3.5-9.8-1.1s-3.5,6.8-1.1,9.8l22,27.8   c1.3,1.7,3.3,2.7,5.5,2.7h0.1c2.2,0,4.2-1,5.5-2.7l34.6-45.3C350.9,386.4,350.3,382,347.3,379.6   C347.3,379.6,347.3,379.6,347.3,379.6z">
																									</path>
																									<path
																										d="M466.9,379.6c-3.1-2.3-7.5-1.8-9.8,1.3L428,419.1l-16.4-20.7c-2.4-3-6.8-3.5-9.8-1.1s-3.5,6.8-1.1,9.8l22,27.8   c1.3,1.7,3.3,2.7,5.5,2.7h0.1c2.2,0,4.2-1,5.5-2.7l34.6-45.3C470.6,386.4,470,382,466.9,379.6C466.9,379.6,466.9,379.6,466.9,379.6   z">
																									</path>
																								</g>
																							</svg>